<!-- Icons sprite -->
<svg xmlns="http://www.w3.org/2000/svg" xmlns:xlink="http://www.w3.org/1999/xlink">
    <symbol id="ic-home" viewBox="0 0 24 24">
        <path d="M12.6815 7.16497C12.2534 6.94664 11.7466 6.94664 11.3185 7.16497L5.81851 9.96997C5.31621 10.2261 5 10.7424 5 11.3062V18C5 19.6568 6.34315 21 8 21H8.86047C9.48981 21 10 20.4898 10 19.8604V17C10 15.8954 10.8954 14.9999 12 14.9999C13.1046 14.9999 14 15.8954 14 17V19.8604C14 20.4898 14.5102 21 15.1395 21H16C17.6569 21 19 19.6568 19 18V11.3062C19 10.7424 18.6838 10.2261 18.1815 9.96997L12.6815 7.16497Z"/>
        <path fill-rule="evenodd" clip-rule="evenodd" d="M3.10579 8.44724C3.35278 8.94122 3.95345 9.14144 4.44743 8.89445L12.0002 5.11806L19.553 8.89445C20.047 9.14144 20.6477 8.94122 20.8946 8.44724C21.1416 7.95326 20.9414 7.35259 20.4474 7.1056L12.4474 3.1056C12.1659 2.96483 11.8345 2.96483 11.553 3.1056L3.55301 7.1056C3.05903 7.35259 2.8588 7.95326 3.10579 8.44724Z"/>
    </symbol>
    <symbol id="ic-lamp" viewBox="0 0 24 24">
        <path d="M9 20.5C9 20.2239 9.22386 20 9.5 20H14.5C14.7761 20 15 20.2239 15 20.5V21C15 21.5523 14.5523 22 14 22H10C9.44772 22 9 21.5523 9 21V20.5Z"/>
        <path d="M16 16.9297C18.3912 15.5465 20 12.9611 20 10C20 5.58172 16.4183 2 12 2C7.58172 2 4 5.58172 4 10C4 12.9611 5.60879 15.5465 8 16.9297V17C8 17.5523 8.44772 18 9 18H10.5C10.7761 18 11 17.7761 11 17.5V13.4142L9.29289 11.7071C8.90237 11.3166 8.90237 10.6834 9.29289 10.2929C9.68342 9.90237 10.3166 9.90237 10.7071 10.2929L12 11.5858L13.2929 10.2929C13.6834 9.90237 14.3166 9.90237 14.7071 10.2929C15.0976 10.6834 15.0976 11.3166 14.7071 11.7071L13 13.4142V17.5C13 17.7761 13.2239 18 13.5 18H15C15.5523 18 16 17.5523 16 17V16.9297Z"/>
    </symbol>
    <symbol id="ic-lighting" viewBox="0 0 24 24">
        <path d="M4.21967 13.3824L12.8485 2.39043C13.4687 1.60032 14.7362 2.11547 14.6294 3.11426L13.9999 8.99993H19.0032C19.8375 8.99993 20.305 9.96128 19.7898 10.6175L11.1508 21.6208C10.5306 22.4108 9.26323 21.8957 9.36993 20.897L9.99993 14.9999H5.00625C4.17202 14.9999 3.70455 14.0386 4.21967 13.3824Z"/>
    </symbol>
    <symbol id="ic-user" viewBox="0 0 24 24">
        <path d="M9 14C6.23858 14 4 16.2386 4 19C4 20.6569 5.34315 22 7 22H17C18.6569 22 20 20.6569 20 19C20 16.2386 17.7614 14 15 14H9Z"/>
        <path d="M12 2C9.23858 2 7 4.23858 7 7C7 9.76142 9.23858 12 12 12C14.7614 12 17 9.76142 17 7C17 4.23858 14.7614 2 12 2Z"/>
    </symbol>
    <symbol id="ic-map" viewBox="0 0 24 24">
        <path d="M3.71715 4.75463L7 4.28564V18.2856L4.28285 18.6738C3.07798 18.8459 2 17.911 2 16.6939V6.73453C2 5.73923 2.73186 4.89539 3.71715 4.75463Z"/>
        <path d="M17 19.7142L20.2828 19.2453C21.2681 19.1045 22 18.2607 22 17.2654V7.30596C22 6.08886 20.922 5.15394 19.7172 5.32606L17 5.71422V19.7142Z"/>
        <path d="M15 20L9 18V4L15 6V20Z"/>
    </symbol>
    <symbol id="ic-globe" viewBox="0 0 22 22">
        <path fill-rule="evenodd" clip-rule="evenodd" d="M14.1976 2.40645C17.4096 3.60215 19.7701 6.54713 20.1212 10.0833H16.481C16.3328 6.52582 15.3317 4.02939 14.2028 2.40839L14.1976 2.40645ZM10.9999 1.83325C8.21068 3.15506 7.43519 7.41103 7.31343 10.0833H14.6459C14.5186 7.28885 13.7255 3.3435 10.9999 1.83325ZM7.7423 2.42894C6.6192 4.05042 5.62587 6.54082 5.47837 10.0833H1.87842C2.22732 6.5691 4.56084 3.63877 7.7423 2.42894ZM14.1978 19.5934C17.4098 18.3977 19.7704 15.4527 20.1215 11.9166H16.4812C16.3331 15.474 15.332 17.9704 14.203 19.5914L14.1978 19.5934ZM11.0001 20.1666C8.21091 18.8448 7.43542 14.5888 7.31365 11.9166H14.6461C14.5188 14.711 13.7257 18.6563 11.0001 20.1666ZM7.74252 19.5709C6.61943 17.9494 5.62609 15.459 5.4786 11.9166H1.87864C2.22755 15.4307 4.56106 18.3611 7.74252 19.5709Z"/>
    </symbol>
    <symbol id="ic-aim1" viewBox="0 0 120 120" fill="none">
        <g filter="url(#filter0_i_1_9144)">
        <path fill-rule="evenodd" clip-rule="evenodd" d="M35 40H25V60V75V80C19.4772 80 15 84.4772 15 90V95C15 100.523 19.4772 105 25 105H95C100.523 105 105 100.523 105 95V90C105 84.4772 100.523 80 95 80V75V60V40H85V60V75V80H75V75V60V40H65V60V75V80H55V75V60V40H45V60V75V80H35V75V60V40Z" fill="#0295FF" fill-opacity="0.25"/>
        </g>
        <path fill-rule="evenodd" clip-rule="evenodd" d="M35 40H25V60V75V80C19.4772 80 15 84.4772 15 90V95C15 100.523 19.4772 105 25 105H95C100.523 105 105 100.523 105 95V90C105 84.4772 100.523 80 95 80V75V60V40H85V60V75V80H75V75V60V40H65V60V75V80H55V75V60V40H45V60V75V80H35V75V60V40Z" stroke="#0061A7" stroke-width="1.25"/>
        <path d="M15 37.1168C15 32.8566 17.699 29.0642 21.7241 27.6686L56.7241 15.5335C58.8461 14.7977 61.1539 14.7977 63.2759 15.5334L98.2759 27.6686C102.301 29.0642 105 32.8566 105 37.1168V40C105 45.5228 100.523 50 95 50H25C19.4772 50 15 45.5228 15 40V37.1168Z" fill="#0295FF" stroke="#53B7FF" stroke-width="1.25"/>
        <defs>
        <filter id="filter0_i_1_9144" x="14.375" y="39.375" width="91.25" height="66.25" filterUnits="userSpaceOnUse" color-interpolation-filters="sRGB">
        <feFlood flood-opacity="0" result="BackgroundImageFix"/>
        <feBlend mode="normal" in="SourceGraphic" in2="BackgroundImageFix" result="shape"/>
        <feColorMatrix in="SourceAlpha" type="matrix" values="0 0 0 0 0 0 0 0 0 0 0 0 0 0 0 0 0 0 127 0" result="hardAlpha"/>
        <feOffset/>
        <feGaussianBlur stdDeviation="5"/>
        <feComposite in2="hardAlpha" operator="arithmetic" k2="-1" k3="1"/>
        <feColorMatrix type="matrix" values="0 0 0 0 0.00784314 0 0 0 0 0.584314 0 0 0 0 1 0 0 0 0.48 0"/>
        <feBlend mode="normal" in2="shape" result="effect1_innerShadow_1_9144"/>
        </filter>
        </defs>
    </symbol>
    <symbol id="ic-aim2" viewBox="0 0 120 120" fill="none">
        <g filter="url(#filter0_i_1_9155)">
        <path d="M10 44C10 35.5992 10 31.3988 11.6349 28.1901C13.073 25.3677 15.3677 23.073 18.1901 21.6349C21.3988 20 25.5992 20 34 20H86C94.4008 20 98.6012 20 101.81 21.6349C104.632 23.073 106.927 25.3677 108.365 28.1901C110 31.3988 110 35.5992 110 44V76C110 84.4008 110 88.6012 108.365 91.8099C106.927 94.6323 104.632 96.927 101.81 98.3651C98.6012 100 94.4008 100 86 100H34C25.5992 100 21.3988 100 18.1901 98.3651C15.3677 96.927 13.073 94.6323 11.6349 91.8099C10 88.6012 10 84.4008 10 76V44Z" fill="#0295FF" fill-opacity="0.25"/>
        </g>
        <path d="M10 44C10 35.5992 10 31.3988 11.6349 28.1901C13.073 25.3677 15.3677 23.073 18.1901 21.6349C21.3988 20 25.5992 20 34 20H86C94.4008 20 98.6012 20 101.81 21.6349C104.632 23.073 106.927 25.3677 108.365 28.1901C110 31.3988 110 35.5992 110 44V76C110 84.4008 110 88.6012 108.365 91.8099C106.927 94.6323 104.632 96.927 101.81 98.3651C98.6012 100 94.4008 100 86 100H34C25.5992 100 21.3988 100 18.1901 98.3651C15.3677 96.927 13.073 94.6323 11.6349 91.8099C10 88.6012 10 84.4008 10 76V44Z" stroke="#0061A7" stroke-width="1.25"/>
        <path fill-rule="evenodd" clip-rule="evenodd" d="M10 40C21.0457 40 30 31.0457 30 20H40C40 36.5685 26.5685 50 10 50V40ZM70 60C70 65.5228 65.5228 70 60 70C54.4772 70 50 65.5228 50 60C50 54.4772 54.4772 50 60 50C65.5228 50 70 54.4772 70 60ZM110 40C98.9543 40 90 31.0457 90 20H80C80 36.5685 93.4315 50 110 50V40ZM30 100C30 88.9543 21.0457 80 10 80V70C26.5685 70 40 83.4315 40 100H30ZM90 100C90 88.9543 98.9543 80 110 80V70C93.4315 70 80 83.4315 80 100H90Z" fill="#0295FF" stroke="#53B7FF" stroke-width="1.25"/>
        <defs>
        <filter id="filter0_i_1_9155" x="9.375" y="19.375" width="101.25" height="81.25" filterUnits="userSpaceOnUse" color-interpolation-filters="sRGB">
        <feFlood flood-opacity="0" result="BackgroundImageFix"/>
        <feBlend mode="normal" in="SourceGraphic" in2="BackgroundImageFix" result="shape"/>
        <feColorMatrix in="SourceAlpha" type="matrix" values="0 0 0 0 0 0 0 0 0 0 0 0 0 0 0 0 0 0 127 0" result="hardAlpha"/>
        <feOffset/>
        <feGaussianBlur stdDeviation="5"/>
        <feComposite in2="hardAlpha" operator="arithmetic" k2="-1" k3="1"/>
        <feColorMatrix type="matrix" values="0 0 0 0 0.00784314 0 0 0 0 0.584314 0 0 0 0 1 0 0 0 0.48 0"/>
        <feBlend mode="normal" in2="shape" result="effect1_innerShadow_1_9155"/>
        </filter>
        </defs>
    </symbol>
    <symbol id="ic-aim3" viewBox="0 0 120 120" fill="none">
        <g filter="url(#filter0_i_1_9163)">
        <path d="M110 30.036C110 22.5329 102.044 17.7024 95.3869 21.1636L71.0556 33.8144C69.9725 34.3776 68.7207 34.525 67.5364 34.229L53.1617 30.6353C50.6602 30.0099 48.0138 30.375 45.775 31.6543L15.0386 49.2179C11.9229 50.9983 10 54.3118 10 57.9003V89.9987C10 95.5216 14.4772 99.9987 20 99.9987H100C105.523 99.9987 110 95.5216 110 89.9987V30.036Z" fill="#0295FF" fill-opacity="0.25"/>
        </g>
        <path d="M110 30.036C110 22.5329 102.044 17.7024 95.3869 21.1636L71.0556 33.8144C69.9725 34.3776 68.7207 34.525 67.5364 34.229L53.1617 30.6353C50.6602 30.0099 48.0138 30.375 45.775 31.6543L15.0386 49.2179C11.9229 50.9983 10 54.3118 10 57.9003V89.9987C10 95.5216 14.4772 99.9987 20 99.9987H100C105.523 99.9987 110 95.5216 110 89.9987V30.036Z" stroke="#0061A7" stroke-width="1.25"/>
        <path d="M45.6265 66.6401L13.2444 78.7834C11.2929 79.5152 10 81.3808 10 83.4651V90C10 95.5229 14.4772 100 20 100H100C105.523 100 110 95.5229 110 90V60.0001C110 56.5091 106.513 54.0927 103.244 55.3185L74.3735 68.36C71.5253 69.4281 68.4197 69.605 65.4686 68.8672L54.5314 66.1329C51.5804 65.3951 48.4747 65.572 45.6265 66.6401Z" fill="#0295FF" stroke="#53B7FF" stroke-width="1.25"/>
        <defs>
        <filter id="filter0_i_1_9163" x="9.375" y="19.3967" width="101.25" height="81.227" filterUnits="userSpaceOnUse" color-interpolation-filters="sRGB">
        <feFlood flood-opacity="0" result="BackgroundImageFix"/>
        <feBlend mode="normal" in="SourceGraphic" in2="BackgroundImageFix" result="shape"/>
        <feColorMatrix in="SourceAlpha" type="matrix" values="0 0 0 0 0 0 0 0 0 0 0 0 0 0 0 0 0 0 127 0" result="hardAlpha"/>
        <feOffset/>
        <feGaussianBlur stdDeviation="5"/>
        <feComposite in2="hardAlpha" operator="arithmetic" k2="-1" k3="1"/>
        <feColorMatrix type="matrix" values="0 0 0 0 0.00784314 0 0 0 0 0.584314 0 0 0 0 1 0 0 0 0.48 0"/>
        <feBlend mode="normal" in2="shape" result="effect1_innerShadow_1_9163"/>
        </filter>
        </defs>
    </symbol>
    <symbol id="ic-aim4" viewBox="0 0 120 120" fill="none">
        <g filter="url(#filter0_i_1_9172)">
        <path d="M65 105C65 107.761 67.2454 110.029 69.9898 109.723C74.1862 109.254 78.3043 108.197 82.2208 106.575C87.6804 104.313 92.6412 100.998 96.8198 96.8198C100.998 92.6412 104.313 87.6804 106.575 82.2208C108.197 78.3043 109.254 74.1862 109.723 69.9898C110.029 67.2454 107.761 65 105 65L70 65C67.2386 65 65 67.2386 65 70L65 105Z" fill="#0295FF" fill-opacity="0.25"/>
        </g>
        <path d="M65 105C65 107.761 67.2454 110.029 69.9898 109.723C74.1862 109.254 78.3043 108.197 82.2208 106.575C87.6804 104.313 92.6412 100.998 96.8198 96.8198C100.998 92.6412 104.313 87.6804 106.575 82.2208C108.197 78.3043 109.254 74.1862 109.723 69.9898C110.029 67.2454 107.761 65 105 65L70 65C67.2386 65 65 67.2386 65 70L65 105Z" stroke="#0061A7" stroke-width="1.25"/>
        <path d="M105 55C107.761 55 110.029 52.7546 109.723 50.0102C109.254 45.8137 108.197 41.6956 106.575 37.7792C104.313 32.3196 100.998 27.3588 96.8198 23.1802C92.6412 19.0015 87.6804 15.6869 82.2208 13.4254C78.3043 11.8032 74.1862 10.7457 69.9897 10.2775C67.2454 9.97128 65 12.2386 65 15L65 50C65 52.7614 67.2386 55 70 55H105Z" fill="#0295FF" stroke="#53B7FF" stroke-width="1.25"/>
        <g filter="url(#filter1_i_1_9172)">
        <path d="M55 20C55 17.2386 52.7543 14.9713 50.0099 15.2774C39.9111 16.4039 30.4347 20.9257 23.1802 28.1802C14.7411 36.6193 10 48.0653 10 60C10 71.9347 14.7411 83.3807 23.1802 91.8198C30.4347 99.0743 39.9111 103.596 50.0099 104.723C52.7543 105.029 55 102.761 55 100L55 20Z" fill="#0295FF" fill-opacity="0.25"/>
        </g>
        <path d="M55 20C55 17.2386 52.7543 14.9713 50.0099 15.2774C39.9111 16.4039 30.4347 20.9257 23.1802 28.1802C14.7411 36.6193 10 48.0653 10 60C10 71.9347 14.7411 83.3807 23.1802 91.8198C30.4347 99.0743 39.9111 103.596 50.0099 104.723C52.7543 105.029 55 102.761 55 100L55 20Z" stroke="#0061A7" stroke-width="1.25"/>
        <defs>
        <filter id="filter0_i_1_9172" x="64.375" y="64.375" width="46.0005" height="46.0007" filterUnits="userSpaceOnUse" color-interpolation-filters="sRGB">
        <feFlood flood-opacity="0" result="BackgroundImageFix"/>
        <feBlend mode="normal" in="SourceGraphic" in2="BackgroundImageFix" result="shape"/>
        <feColorMatrix in="SourceAlpha" type="matrix" values="0 0 0 0 0 0 0 0 0 0 0 0 0 0 0 0 0 0 127 0" result="hardAlpha"/>
        <feOffset/>
        <feGaussianBlur stdDeviation="5"/>
        <feComposite in2="hardAlpha" operator="arithmetic" k2="-1" k3="1"/>
        <feColorMatrix type="matrix" values="0 0 0 0 0.00784314 0 0 0 0 0.584314 0 0 0 0 1 0 0 0 0.48 0"/>
        <feBlend mode="normal" in2="shape" result="effect1_innerShadow_1_9172"/>
        </filter>
        <filter id="filter1_i_1_9172" x="9.375" y="14.6242" width="46.25" height="90.7516" filterUnits="userSpaceOnUse" color-interpolation-filters="sRGB">
        <feFlood flood-opacity="0" result="BackgroundImageFix"/>
        <feBlend mode="normal" in="SourceGraphic" in2="BackgroundImageFix" result="shape"/>
        <feColorMatrix in="SourceAlpha" type="matrix" values="0 0 0 0 0 0 0 0 0 0 0 0 0 0 0 0 0 0 127 0" result="hardAlpha"/>
        <feOffset/>
        <feGaussianBlur stdDeviation="5"/>
        <feComposite in2="hardAlpha" operator="arithmetic" k2="-1" k3="1"/>
        <feColorMatrix type="matrix" values="0 0 0 0 0.00784314 0 0 0 0 0.584314 0 0 0 0 1 0 0 0 0.48 0"/>
        <feBlend mode="normal" in2="shape" result="effect1_innerShadow_1_9172"/>
        </filter>
        </defs>
    </symbol>
    <symbol id="ic-aim5" viewBox="0 0 120 120" fill="none">
        <path d="M100 40C102.761 40 105 42.2386 105 45C105 47.7614 102.761 50 100 50H95V40H100Z" fill="#0295FF"/>
        <path d="M80 95H70V100C70 102.761 72.2386 105 75 105C77.7614 105 80 102.761 80 100V95Z" fill="#0295FF"/>
        <path d="M70 20C70 17.2386 72.2386 15 75 15C77.7614 15 80 17.2386 80 20L80 25H70L70 20Z" fill="#0295FF"/>
        <path d="M50 95H40V100C40 102.761 42.2386 105 45 105C47.7614 105 50 102.761 50 100V95Z" fill="#0295FF"/>
        <path d="M45 15C42.2386 15 40 17.2386 40 20V25L50 25V20C50 17.2386 47.7614 15 45 15Z" fill="#0295FF"/>
        <path d="M25 50V40H20C17.2386 40 15 42.2386 15 45C15 47.7614 17.2386 50 20 50L25 50Z" fill="#0295FF"/>
        <path d="M100 70C102.761 70 105 72.2386 105 75C105 77.7614 102.761 80 100 80L95 80V70L100 70Z" fill="#0295FF"/>
        <path d="M20 80H25V70H20C17.2386 70 15 72.2386 15 75C15 77.7614 17.2386 80 20 80Z" fill="#0295FF"/>
        <path d="M100 40C102.761 40 105 42.2386 105 45C105 47.7614 102.761 50 100 50H95V40H100Z" stroke="#53B7FF" stroke-width="1.25"/>
        <path d="M80 95H70V100C70 102.761 72.2386 105 75 105C77.7614 105 80 102.761 80 100V95Z" stroke="#53B7FF" stroke-width="1.25"/>
        <path d="M70 20C70 17.2386 72.2386 15 75 15C77.7614 15 80 17.2386 80 20L80 25H70L70 20Z" stroke="#53B7FF" stroke-width="1.25"/>
        <path d="M50 95H40V100C40 102.761 42.2386 105 45 105C47.7614 105 50 102.761 50 100V95Z" stroke="#53B7FF" stroke-width="1.25"/>
        <path d="M45 15C42.2386 15 40 17.2386 40 20V25L50 25V20C50 17.2386 47.7614 15 45 15Z" stroke="#53B7FF" stroke-width="1.25"/>
        <path d="M25 50V40H20C17.2386 40 15 42.2386 15 45C15 47.7614 17.2386 50 20 50L25 50Z" stroke="#53B7FF" stroke-width="1.25"/>
        <path d="M100 70C102.761 70 105 72.2386 105 75C105 77.7614 102.761 80 100 80L95 80V70L100 70Z" stroke="#53B7FF" stroke-width="1.25"/>
        <path d="M20 80H25V70H20C17.2386 70 15 72.2386 15 75C15 77.7614 17.2386 80 20 80Z" stroke="#53B7FF" stroke-width="1.25"/>
        <g filter="url(#filter0_i_1_9182)">
        <path d="M25 41C25 35.3995 25 32.5992 26.0899 30.4601C27.0487 28.5785 28.5785 27.0487 30.4601 26.0899C32.5992 25 35.3995 25 41 25H79C84.6005 25 87.4008 25 89.5399 26.0899C91.4215 27.0487 92.9513 28.5785 93.9101 30.4601C95 32.5992 95 35.3995 95 41V79C95 84.6005 95 87.4008 93.9101 89.5399C92.9513 91.4215 91.4215 92.9513 89.5399 93.9101C87.4008 95 84.6005 95 79 95H41C35.3995 95 32.5992 95 30.4601 93.9101C28.5785 92.9513 27.0487 91.4215 26.0899 89.5399C25 87.4008 25 84.6005 25 79V41Z" fill="#0295FF" fill-opacity="0.25"/>
        </g>
        <path d="M25 41C25 35.3995 25 32.5992 26.0899 30.4601C27.0487 28.5785 28.5785 27.0487 30.4601 26.0899C32.5992 25 35.3995 25 41 25H79C84.6005 25 87.4008 25 89.5399 26.0899C91.4215 27.0487 92.9513 28.5785 93.9101 30.4601C95 32.5992 95 35.3995 95 41V79C95 84.6005 95 87.4008 93.9101 89.5399C92.9513 91.4215 91.4215 92.9513 89.5399 93.9101C87.4008 95 84.6005 95 79 95H41C35.3995 95 32.5992 95 30.4601 93.9101C28.5785 92.9513 27.0487 91.4215 26.0899 89.5399C25 87.4008 25 84.6005 25 79V41Z" stroke="#0061A7" stroke-width="1.25"/>
        <path d="M50 55C50 52.2386 52.2386 50 55 50H65C67.7614 50 70 52.2386 70 55V65C70 67.7614 67.7614 70 65 70H55C52.2386 70 50 67.7614 50 65V55Z" fill="#0295FF" stroke="#53B7FF" stroke-width="1.25"/>
        <defs>
        <filter id="filter0_i_1_9182" x="24.375" y="24.375" width="71.25" height="71.25" filterUnits="userSpaceOnUse" color-interpolation-filters="sRGB">
        <feFlood flood-opacity="0" result="BackgroundImageFix"/>
        <feBlend mode="normal" in="SourceGraphic" in2="BackgroundImageFix" result="shape"/>
        <feColorMatrix in="SourceAlpha" type="matrix" values="0 0 0 0 0 0 0 0 0 0 0 0 0 0 0 0 0 0 127 0" result="hardAlpha"/>
        <feOffset/>
        <feGaussianBlur stdDeviation="5"/>
        <feComposite in2="hardAlpha" operator="arithmetic" k2="-1" k3="1"/>
        <feColorMatrix type="matrix" values="0 0 0 0 0.00784314 0 0 0 0 0.584314 0 0 0 0 1 0 0 0 0.48 0"/>
        <feBlend mode="normal" in2="shape" result="effect1_innerShadow_1_9182"/>
        </filter>
        </defs>
    </symbol>
    <symbol id="ic-work1" viewBox="0 0 80 80" fill="none">
        <path d="M39.9999 6.6665C32.6361 6.6665 26.6666 12.636 26.6666 19.9998V29.9998H33.3333V19.9998C33.3333 16.3179 36.318 13.3332 39.9999 13.3332C43.6818 13.3332 46.6666 16.3179 46.6666 19.9998V29.9998H53.3333V19.9998C53.3333 12.636 47.3637 6.6665 39.9999 6.6665Z" fill="#0295FF"/>
        <path fill-rule="evenodd" clip-rule="evenodd" d="M52.7948 29.9999H27.2045C25.4475 29.9998 23.9314 29.9998 22.6829 30.1018C21.3651 30.2095 20.0544 30.4472 18.7931 31.0898C16.9115 32.0486 15.3817 33.5784 14.423 35.46C13.7803 36.7213 13.5426 38.032 13.4349 39.3498C13.3329 40.5983 13.333 42.1142 13.333 43.8713V59.4618C13.333 61.2189 13.3329 62.7348 13.4349 63.9833C13.5426 65.3012 13.7803 66.6119 14.423 67.8731C15.3817 69.7548 16.9115 71.2846 18.7931 72.2433C20.0544 72.886 21.3651 73.1237 22.6829 73.2313C23.9315 73.3334 25.4474 73.3333 27.2045 73.3332H52.7948C54.5519 73.3333 56.0679 73.3334 57.3164 73.2313C58.6343 73.1237 59.945 72.886 61.2063 72.2433C63.0879 71.2846 64.6177 69.7548 65.5764 67.8731C66.2191 66.6119 66.4568 65.3012 66.5645 63.9833C66.6665 62.735 66.6664 61.2193 66.6663 59.4624V43.8714C66.6664 42.1146 66.6665 40.5982 66.5645 39.3498C66.4568 38.032 66.2191 36.7213 65.5764 35.46C64.6177 33.5784 63.0879 32.0486 61.2063 31.0898C59.945 30.4472 58.6343 30.2095 57.3164 30.1018C56.0679 29.9998 54.5519 29.9998 52.7948 29.9999ZM36.6663 53.3332C36.6663 51.4923 38.1587 49.9999 39.9997 49.9999C41.8406 49.9999 43.333 51.4923 43.333 53.3332V56.6666C43.333 58.5075 41.8406 59.9999 39.9997 59.9999C38.1587 59.9999 36.6663 58.5075 36.6663 56.6666V53.3332Z" fill="#0295FF"/>
        <path d="M39.9999 6.6665C32.6361 6.6665 26.6666 12.636 26.6666 19.9998V29.9998H33.3333V19.9998C33.3333 16.3179 36.318 13.3332 39.9999 13.3332C43.6818 13.3332 46.6666 16.3179 46.6666 19.9998V29.9998H53.3333V19.9998C53.3333 12.636 47.3637 6.6665 39.9999 6.6665Z" stroke="#53B7FF" stroke-width="0.5"/>
        <path fill-rule="evenodd" clip-rule="evenodd" d="M52.7948 29.9999H27.2045C25.4475 29.9998 23.9314 29.9998 22.6829 30.1018C21.3651 30.2095 20.0544 30.4472 18.7931 31.0898C16.9115 32.0486 15.3817 33.5784 14.423 35.46C13.7803 36.7213 13.5426 38.032 13.4349 39.3498C13.3329 40.5983 13.333 42.1142 13.333 43.8713V59.4618C13.333 61.2189 13.3329 62.7348 13.4349 63.9833C13.5426 65.3012 13.7803 66.6119 14.423 67.8731C15.3817 69.7548 16.9115 71.2846 18.7931 72.2433C20.0544 72.886 21.3651 73.1237 22.6829 73.2313C23.9315 73.3334 25.4474 73.3333 27.2045 73.3332H52.7948C54.5519 73.3333 56.0679 73.3334 57.3164 73.2313C58.6343 73.1237 59.945 72.886 61.2063 72.2433C63.0879 71.2846 64.6177 69.7548 65.5764 67.8731C66.2191 66.6119 66.4568 65.3012 66.5645 63.9833C66.6665 62.735 66.6664 61.2193 66.6663 59.4624V43.8714C66.6664 42.1146 66.6665 40.5982 66.5645 39.3498C66.4568 38.032 66.2191 36.7213 65.5764 35.46C64.6177 33.5784 63.0879 32.0486 61.2063 31.0898C59.945 30.4472 58.6343 30.2095 57.3164 30.1018C56.0679 29.9998 54.5519 29.9998 52.7948 29.9999ZM36.6663 53.3332C36.6663 51.4923 38.1587 49.9999 39.9997 49.9999C41.8406 49.9999 43.333 51.4923 43.333 53.3332V56.6666C43.333 58.5075 41.8406 59.9999 39.9997 59.9999C38.1587 59.9999 36.6663 58.5075 36.6663 56.6666V53.3332Z" stroke="#53B7FF" stroke-width="0.5"/>
    </symbol>
    <symbol id="ic-work2" viewBox="0 0 80 80" fill="none">
        <path d="M25 10C22.2386 10 20 12.2386 20 15C20 17.7614 22.2386 20 25 20H41.6667C44.4281 20 46.6667 17.7614 46.6667 15C46.6667 12.2386 44.4281 10 41.6667 10H25Z" fill="#0295FF"/>
        <path d="M10 31.6667C10 28.9052 12.2386 26.6667 15 26.6667H31.6667C34.4281 26.6667 36.6667 28.9052 36.6667 31.6667C36.6667 34.4281 34.4281 36.6667 31.6667 36.6667H15C12.2386 36.6667 10 34.4281 10 31.6667Z" fill="#0295FF"/>
        <path d="M16.6667 48.3333C16.6667 45.5719 18.9052 43.3333 21.6667 43.3333H38.3333C38.6934 43.3333 39.0446 43.3714 39.383 43.4437C40.3457 43.6494 40.529 44.8094 39.985 45.6299C38.7229 47.5337 37.778 49.6662 37.2256 51.9518C37.0344 52.743 36.3469 53.3333 35.5328 53.3333H21.6667C18.9052 53.3333 16.6667 51.0948 16.6667 48.3333Z" fill="#0295FF"/>
        <path d="M15 60C12.2386 60 10 62.2386 10 65C10 67.7614 12.2386 70 15 70H31.6667C34.4281 70 36.6667 67.7614 36.6667 65C36.6667 62.2386 34.4281 60 31.6667 60H15Z" fill="#0295FF"/>
        <path d="M70.0002 56.6668C70.0002 64.0306 64.0306 70.0002 56.6668 70.0002C49.303 70.0002 43.3335 64.0306 43.3335 56.6668C43.3335 49.303 49.303 43.3335 56.6668 43.3335C64.0306 43.3335 70.0002 49.303 70.0002 56.6668Z" fill="#0295FF"/>
        <path d="M25 10C22.2386 10 20 12.2386 20 15C20 17.7614 22.2386 20 25 20H41.6667C44.4281 20 46.6667 17.7614 46.6667 15C46.6667 12.2386 44.4281 10 41.6667 10H25Z" stroke="#53B7FF" stroke-width="0.5"/>
        <path d="M10 31.6667C10 28.9052 12.2386 26.6667 15 26.6667H31.6667C34.4281 26.6667 36.6667 28.9052 36.6667 31.6667C36.6667 34.4281 34.4281 36.6667 31.6667 36.6667H15C12.2386 36.6667 10 34.4281 10 31.6667Z" stroke="#53B7FF" stroke-width="0.5"/>
        <path d="M16.6667 48.3333C16.6667 45.5719 18.9052 43.3333 21.6667 43.3333H38.3333C38.6934 43.3333 39.0446 43.3714 39.383 43.4437C40.3457 43.6494 40.529 44.8094 39.985 45.6299C38.7229 47.5337 37.778 49.6662 37.2256 51.9518C37.0344 52.743 36.3469 53.3333 35.5328 53.3333H21.6667C18.9052 53.3333 16.6667 51.0948 16.6667 48.3333Z" stroke="#53B7FF" stroke-width="0.5"/>
        <path d="M15 60C12.2386 60 10 62.2386 10 65C10 67.7614 12.2386 70 15 70H31.6667C34.4281 70 36.6667 67.7614 36.6667 65C36.6667 62.2386 34.4281 60 31.6667 60H15Z" stroke="#53B7FF" stroke-width="0.5"/>
        <path d="M70.0002 56.6668C70.0002 64.0306 64.0306 70.0002 56.6668 70.0002C49.303 70.0002 43.3335 64.0306 43.3335 56.6668C43.3335 49.303 49.303 43.3335 56.6668 43.3335C64.0306 43.3335 70.0002 49.303 70.0002 56.6668Z" stroke="#53B7FF" stroke-width="0.5"/>
    </symbol>
    <symbol id="ic-work3" viewBox="0 0 80 80" fill="none">
        <path fill-rule="evenodd" clip-rule="evenodd" d="M10 31.3333C10 23.866 10 20.1323 11.4532 17.2801C12.7316 14.7713 14.7713 12.7316 17.2801 11.4532C20.1323 10 23.866 10 31.3333 10H48.6667C56.134 10 59.8677 10 62.7199 11.4532C65.2287 12.7316 67.2684 14.7713 68.5468 17.2801C70 20.1323 70 23.866 70 31.3333V48.6667C70 56.134 70 59.8677 68.5468 62.7199C67.2684 65.2287 65.2287 67.2684 62.7199 68.5468C59.8677 70 56.134 70 48.6667 70H31.3333C23.866 70 20.1323 70 17.2801 68.5468C14.7713 67.2684 12.7316 65.2287 11.4532 62.7199C10 59.8677 10 56.134 10 48.6667V31.3333ZM36.6667 53.3333C36.6667 51.4924 38.159 50 40 50H53.3333C55.1743 50 56.6667 51.4924 56.6667 53.3333C56.6667 55.1743 55.1743 56.6667 53.3333 56.6667H40C38.159 56.6667 36.6667 55.1743 36.6667 53.3333ZM40 36.6667C38.159 36.6667 36.6667 38.159 36.6667 40C36.6667 41.8409 38.159 43.3333 40 43.3333H53.3333C55.1743 43.3333 56.6667 41.8409 56.6667 40C56.6667 38.159 55.1743 36.6667 53.3333 36.6667H40ZM36.6667 26.6667C36.6667 24.8257 38.159 23.3333 40 23.3333H53.3333C55.1743 23.3333 56.6667 24.8257 56.6667 26.6667C56.6667 28.5076 55.1743 30 53.3333 30H40C38.159 30 36.6667 28.5076 36.6667 26.6667ZM26.6667 56.6667C28.5076 56.6667 30 55.1743 30 53.3333C30 51.4924 28.5076 50 26.6667 50C24.8257 50 23.3333 51.4924 23.3333 53.3333C23.3333 55.1743 24.8257 56.6667 26.6667 56.6667ZM30 40C30 41.8409 28.5076 43.3333 26.6667 43.3333C24.8257 43.3333 23.3333 41.8409 23.3333 40C23.3333 38.159 24.8257 36.6667 26.6667 36.6667C28.5076 36.6667 30 38.159 30 40ZM26.6667 30C28.5076 30 30 28.5076 30 26.6667C30 24.8257 28.5076 23.3333 26.6667 23.3333C24.8257 23.3333 23.3333 24.8257 23.3333 26.6667C23.3333 28.5076 24.8257 30 26.6667 30Z" fill="#0295FF" stroke="#53B7FF" stroke-width="0.5"/>
    </symbol>
    <symbol id="ic-work4" viewBox="0 0 80 80" fill="none">
        <path fill-rule="evenodd" clip-rule="evenodd" d="M10 36.6665C10 20.098 23.4315 6.6665 40 6.6665C56.5685 6.6665 70 20.098 70 36.6665C70 46.7545 63.9674 55.3057 57.0165 61.3299L45.5451 71.2718C42.3628 74.0298 37.6372 74.0298 34.4549 71.2718L22.9835 61.3299C16.0326 55.3057 10 46.7545 10 36.6665ZM40 43.3332C43.6819 43.3332 46.6667 40.3484 46.6667 36.6665C46.6667 32.9846 43.6819 29.9998 40 29.9998C36.3181 29.9998 33.3333 32.9846 33.3333 36.6665C33.3333 40.3484 36.3181 43.3332 40 43.3332Z" fill="#0295FF" stroke="#53B7FF" stroke-width="0.5"/>
    </symbol>
    <symbol id="ic-work5" viewBox="0 0 80 80" fill="none">
        <path fill-rule="evenodd" clip-rule="evenodd" d="M39.9998 6.6665C38.1589 6.6665 36.6665 8.15889 36.6665 9.99984V13.5395C24.6041 15.0436 15.0436 24.6041 13.5395 36.6665H9.99984C8.15889 36.6665 6.6665 38.1589 6.6665 39.9998C6.6665 41.8408 8.15889 43.3332 9.99984 43.3332H13.5395C15.0436 55.3956 24.6041 64.956 36.6665 66.4602V69.9998C36.6665 71.8408 38.1589 73.3332 39.9998 73.3332C41.8408 73.3332 43.3332 71.8408 43.3332 69.9998V66.4602C55.3956 64.956 64.956 55.3956 66.4602 43.3332H69.9998C71.8408 43.3332 73.3332 41.8408 73.3332 39.9998C73.3332 38.1589 71.8408 36.6665 69.9998 36.6665H66.4602C64.956 24.6041 55.3956 15.0436 43.3332 13.5395V9.99984C43.3332 8.15889 41.8408 6.6665 39.9998 6.6665ZM39.9998 46.6665C43.6817 46.6665 46.6665 43.6817 46.6665 39.9998C46.6665 36.3179 43.6817 33.3332 39.9998 33.3332C36.3179 33.3332 33.3332 36.3179 33.3332 39.9998C33.3332 43.6817 36.3179 46.6665 39.9998 46.6665Z" fill="#0295FF" stroke="#53B7FF" stroke-width="0.5"/>
    </symbol>
    <symbol id="ic-work6" viewBox="0 0 80 80" fill="none">
        <path d="M31.6665 20C30.9882 20 30.56 19.253 30.9661 18.7096C34.9169 13.4226 41.2254 10 48.3332 10C60.2993 10 69.9998 19.7005 69.9998 31.6667C69.9998 38.7745 66.5772 45.0829 61.2902 49.0338C60.7468 49.4398 59.9998 49.0117 59.9998 48.3333C59.9998 32.6853 47.3146 20 31.6665 20Z" fill="#0295FF"/>
        <path d="M31.6667 69.9998C19.7005 69.9998 10 60.2993 10 48.3332C10 36.367 19.7005 26.6665 31.6667 26.6665C43.6328 26.6665 53.3333 36.367 53.3333 48.3332C53.3333 60.2993 43.6328 69.9998 31.6667 69.9998Z" fill="#0295FF"/>
        <path d="M31.6665 20C30.9882 20 30.56 19.253 30.9661 18.7096C34.9169 13.4226 41.2254 10 48.3332 10C60.2993 10 69.9998 19.7005 69.9998 31.6667C69.9998 38.7745 66.5772 45.0829 61.2902 49.0338C60.7468 49.4398 59.9998 49.0117 59.9998 48.3333C59.9998 32.6853 47.3146 20 31.6665 20Z" stroke="#53B7FF" stroke-width="0.5"/>
        <path d="M31.6667 69.9998C19.7005 69.9998 10 60.2993 10 48.3332C10 36.367 19.7005 26.6665 31.6667 26.6665C43.6328 26.6665 53.3333 36.367 53.3333 48.3332C53.3333 60.2993 43.6328 69.9998 31.6667 69.9998Z" stroke="#53B7FF" stroke-width="0.5"/>
    </symbol>
    <symbol id="ic-work7" viewBox="0 0 80 80" fill="none">
        <path d="M23.3335 23.3332C23.3335 14.1284 30.7954 6.6665 40.0002 6.6665C49.2049 6.6665 56.6668 14.1284 56.6668 23.3332C56.6668 32.5379 49.2049 39.9998 40.0002 39.9998C30.7954 39.9998 23.3335 32.5379 23.3335 23.3332Z" fill="#0295FF"/>
        <path d="M13.3335 63.3332C13.3335 54.1284 20.7954 46.6665 30.0002 46.6665H50.0002C59.2049 46.6665 66.6668 54.1284 66.6668 63.3332C66.6668 68.856 62.1897 73.3332 56.6668 73.3332H23.3335C17.8106 73.3332 13.3335 68.856 13.3335 63.3332Z" fill="#0295FF"/>
        <path d="M23.3335 23.3332C23.3335 14.1284 30.7954 6.6665 40.0002 6.6665C49.2049 6.6665 56.6668 14.1284 56.6668 23.3332C56.6668 32.5379 49.2049 39.9998 40.0002 39.9998C30.7954 39.9998 23.3335 32.5379 23.3335 23.3332Z" stroke="#53B7FF" stroke-width="0.5"/>
        <path d="M13.3335 63.3332C13.3335 54.1284 20.7954 46.6665 30.0002 46.6665H50.0002C59.2049 46.6665 66.6668 54.1284 66.6668 63.3332C66.6668 68.856 62.1897 73.3332 56.6668 73.3332H23.3335C17.8106 73.3332 13.3335 68.856 13.3335 63.3332Z" stroke="#53B7FF" stroke-width="0.5"/>
    </symbol>
    <symbol id="ic-dva1" viewBox="0 0 80 80" fill="none">
        <path fill-rule="evenodd" clip-rule="evenodd" d="M21.6665 33.3335C18.9051 33.3335 16.6665 35.5721 16.6665 38.3335V63.3335C16.6665 68.8563 21.1437 73.3335 26.6665 73.3335H53.3332C58.856 73.3335 63.3332 68.8563 63.3332 63.3335V38.3335C63.3332 35.5721 61.0946 33.3335 58.3332 33.3335H21.6665ZM36.6665 46.6668C36.6665 44.8259 38.1589 43.3335 39.9998 43.3335C41.8408 43.3335 43.3332 44.8259 43.3332 46.6668V50.0002H46.6665C48.5075 50.0002 49.9998 51.4925 49.9998 53.3335C49.9998 55.1744 48.5075 56.6668 46.6665 56.6668H43.3332V60.0002C43.3332 61.8411 41.8408 63.3335 39.9998 63.3335C38.1589 63.3335 36.6665 61.8411 36.6665 60.0002V56.6668H33.3332C31.4922 56.6668 29.9998 55.1744 29.9998 53.3335C29.9998 51.4925 31.4922 50.0002 33.3332 50.0002H36.6665V46.6668Z" fill="#929292"/>
        <path fill-rule="evenodd" clip-rule="evenodd" d="M13.3335 13.3332C13.3335 9.65127 16.3183 6.6665 20.0002 6.6665H60.0002C63.6821 6.6665 66.6668 9.65127 66.6668 13.3332V19.9998C66.6668 23.6817 63.6821 26.6665 60.0002 26.6665H51.6668C50.7464 26.6665 50.0002 25.9203 50.0002 24.9998V23.3332C50.0002 21.4922 48.5078 19.9998 46.6668 19.9998C44.8259 19.9998 43.3335 21.4922 43.3335 23.3332V24.9998C43.3335 25.9203 42.5873 26.6665 41.6668 26.6665H38.3335C37.413 26.6665 36.6668 25.9203 36.6668 24.9998V23.3332C36.6668 21.4922 35.1744 19.9998 33.3335 19.9998C31.4925 19.9998 30.0002 21.4922 30.0002 23.3332V24.9998C30.0002 25.9203 29.254 26.6665 28.3335 26.6665H20.0002C16.3183 26.6665 13.3335 23.6817 13.3335 19.9998V13.3332Z" fill="#929292"/>
    </symbol>
    <symbol id="ic-dva2" viewBox="0 0 80 80" fill="none">
        <path fill-rule="evenodd" clip-rule="evenodd" d="M11.0899 15.4601C10 17.5992 10 20.3995 10 26V47.3333C10 52.9339 10 55.7341 11.0899 57.8732C12.0487 59.7549 13.5785 61.2847 15.4601 62.2434C16.6476 62.8485 18.0389 63.1176 20 63.2374V66.6667C20 68.5076 21.4924 70 23.3333 70C25.1743 70 26.6667 68.5076 26.6667 66.6667V63.3333H53.3333V66.6667C53.3333 68.5076 54.8257 70 56.6667 70C58.5076 70 60 68.5076 60 66.6667V63.2374C61.9611 63.1176 63.3524 62.8485 64.5399 62.2434C66.4215 61.2847 67.9513 59.7549 68.9101 57.8732C70 55.7341 70 52.9339 70 47.3333V26C70 20.3995 70 17.5992 68.9101 15.4601C67.9513 13.5785 66.4215 12.0487 64.5399 11.0899C62.4008 10 59.6005 10 54 10H26C20.3995 10 17.5992 10 15.4601 11.0899C13.5785 12.0487 12.0487 13.5785 11.0899 15.4601ZM43.3333 36.6667C43.3333 38.5076 41.8409 40 40 40C38.1591 40 36.6667 38.5076 36.6667 36.6667C36.6667 34.8257 38.1591 33.3333 40 33.3333C41.8409 33.3333 43.3333 34.8257 43.3333 36.6667ZM30.569 40C31.5733 42.8414 33.8253 45.0934 36.6667 46.0976V50C36.6667 51.841 38.159 53.3333 40 53.3333C41.841 53.3333 43.3333 51.841 43.3333 50V46.0976C46.1747 45.0934 48.4267 42.8414 49.431 40H53.3333C55.1743 40 56.6667 38.5076 56.6667 36.6667C56.6667 34.8257 55.1743 33.3333 53.3333 33.3333H49.431C48.4267 30.492 46.1747 28.24 43.3333 27.2357V23.3333C43.3333 21.4924 41.841 20 40 20C38.159 20 36.6667 21.4924 36.6667 23.3333V27.2357C33.8253 28.24 31.5733 30.492 30.569 33.3333H26.6667C24.8257 33.3333 23.3333 34.8257 23.3333 36.6667C23.3333 38.5076 24.8257 40 26.6667 40H30.569Z" fill="#929292"/>
    </symbol>
    <symbol id="ic-dva3" viewBox="0 0 80 80" fill="none">
        <path d="M14.0657 44.6083L42.8285 7.96827C44.896 5.33455 49.1209 7.05172 48.7648 10.381L46.6666 29.9999H63.3443C66.1251 29.9999 67.6834 33.2044 65.9661 35.3917L37.1695 72.0695C35.1021 74.7028 30.8776 72.986 31.2333 69.657L33.3333 49.9999H16.6877C13.9069 49.9999 12.3487 46.7956 14.0657 44.6083Z" fill="#929292"/>
    </symbol>
    <symbol id="ic-dva4" viewBox="0 0 80 80" fill="none">
        <path fill-rule="evenodd" clip-rule="evenodd" d="M73.3332 30.0002C73.3332 31.8345 73.2086 33.596 72.9746 35.2868C72.8638 36.0873 72.168 36.6667 71.3598 36.6667H57.1978L53.0637 27.0203C52.5384 25.7947 51.3333 25 49.9998 25C48.6664 25 47.4613 25.7947 46.936 27.0203L39.9998 43.2047L38.0637 38.6869C37.5384 37.4613 36.3333 36.6667 34.9998 36.6667H8.63986C7.83168 36.6667 7.13589 36.0873 7.0251 35.2868C6.79112 33.596 6.6665 31.8346 6.6665 30.0003C6.6665 18.9546 15.6208 10 26.6665 10C31.7889 10 36.4615 11.9257 39.9998 15.0926C43.5382 11.9257 48.2108 10 53.3332 10C64.3789 10 73.3332 18.9545 73.3332 30.0002ZM11.5338 43.3333C10.3628 43.3333 9.56127 44.5109 10.0563 45.5721C16.6012 59.6007 30.8759 66.8423 37.0532 69.4179C38.9514 70.2093 41.0483 70.2093 42.9465 69.4179C49.1238 66.8423 63.3985 59.6007 69.9433 45.5721C70.4384 44.5109 69.6368 43.3333 68.4659 43.3333H54.9998C53.6664 43.3333 52.4613 42.5387 51.936 41.3131L49.9998 36.7953L43.0637 52.9797C42.5384 54.2053 41.3333 55 39.9998 55C38.6664 55 37.4613 54.2053 36.936 52.9797L32.8019 43.3333H11.5338Z" fill="#929292"/>
    </symbol>
    <symbol id="ic-dva5" viewBox="0 0 80 80" fill="none">
        <path fill-rule="evenodd" clip-rule="evenodd" d="M7.75644 18.7936C6.6665 20.9327 6.6665 23.733 6.6665 29.3335V50.6668C6.6665 56.2673 6.6665 59.0676 7.75644 61.2067C8.71517 63.0883 10.245 64.6182 12.1266 65.5769C14.2657 66.6668 17.066 66.6668 22.6665 66.6668H57.3332C62.9337 66.6668 65.734 66.6668 67.8731 65.5769C69.7547 64.6182 71.2845 63.0883 72.2432 61.2067C73.3332 59.0676 73.3332 56.2673 73.3332 50.6668V29.3335C73.3332 23.733 73.3332 20.9327 72.2432 18.7936C71.2845 16.912 69.7547 15.3822 67.8731 14.4234C65.734 13.3335 62.9337 13.3335 57.3332 13.3335H22.6665C17.066 13.3335 14.2657 13.3335 12.1266 14.4234C10.245 15.3822 8.71517 16.912 7.75644 18.7936ZM25.2188 27.2514C23.7007 26.21 21.6258 26.5965 20.5844 28.1145C19.543 29.6326 19.9295 31.7075 21.4475 32.7489L34.3429 41.5951C37.7517 43.9336 42.248 43.9336 45.6567 41.5951L58.5521 32.7489C60.0702 31.7075 60.4566 29.6326 59.4152 28.1145C58.3738 26.5965 56.299 26.21 54.7809 27.2514L41.8855 36.0977C40.7492 36.8772 39.2505 36.8772 38.1142 36.0977L25.2188 27.2514Z" fill="#929292"/>
    </symbol>
    <symbol id="ic-dva6" viewBox="0 0 80 80" fill="none">
        <path fill-rule="evenodd" clip-rule="evenodd" d="M7.5669 35.7997C10.4647 29.292 19.6384 13.3335 40.0009 13.3335C60.364 13.3335 69.5369 29.2929 72.4341 35.8003C73.6285 38.483 73.6285 41.5174 72.4341 44.2C69.5369 50.7074 60.364 66.6668 40.0009 66.6668C19.6384 66.6668 10.4647 50.7083 7.5669 44.2006C6.37223 41.5176 6.37223 38.4827 7.5669 35.7997ZM40 53.3335C47.3638 53.3335 53.3333 47.364 53.3333 40.0002C53.3333 32.6364 47.3638 26.6668 40 26.6668C32.6362 26.6668 26.6666 32.6364 26.6666 40.0002C26.6666 47.364 32.6362 53.3335 40 53.3335Z" fill="#929292"/>
        <path d="M35.0002 40.0002C37.7616 40.0002 40.0002 37.7616 40.0002 35.0002C40.0002 34.418 39.9007 33.859 39.7177 33.3394C39.8114 33.3355 39.9055 33.3335 40.0002 33.3335C43.6821 33.3335 46.6668 36.3183 46.6668 40.0002C46.6668 43.6821 43.6821 46.6668 40.0002 46.6668C36.3183 46.6668 33.3335 43.6821 33.3335 40.0002C33.3335 39.9055 33.3355 39.8114 33.3394 39.7177C33.859 39.9007 34.418 40.0002 35.0002 40.0002Z" fill="#929292"/>
    </symbol>
    <symbol id="ic-linkedin" viewBox="0 0 32 32">
        <path fill-rule="evenodd" clip-rule="evenodd" d="M4 10.4C4 8.15979 4 7.03969 4.43597 6.18404C4.81947 5.43139 5.43139 4.81947 6.18404 4.43597C7.03969 4 8.15979 4 10.4 4H21.6C23.8402 4 24.9603 4 25.816 4.43597C26.5686 4.81947 27.1805 5.43139 27.564 6.18404C28 7.03969 28 8.15979 28 10.4V21.6C28 23.8402 28 24.9603 27.564 25.816C27.1805 26.5686 26.5686 27.1805 25.816 27.564C24.9603 28 23.8402 28 21.6 28H10.4C8.15979 28 7.03969 28 6.18404 27.564C5.43139 27.1805 4.81947 26.5686 4.43597 25.816C4 24.9603 4 23.8402 4 21.6V10.4ZM9.33333 16C9.33333 15.2636 9.93029 14.6667 10.6667 14.6667C11.403 14.6667 12 15.2636 12 16V21.3333C12 22.0697 11.403 22.6667 10.6667 22.6667C9.93029 22.6667 9.33333 22.0697 9.33333 21.3333V16ZM10.6667 12C11.403 12 12 11.403 12 10.6667C12 9.93029 11.403 9.33333 10.6667 9.33333C9.93029 9.33333 9.33333 9.93029 9.33333 10.6667C9.33333 11.403 9.93029 12 10.6667 12ZM18.6667 17.3333C17.9303 17.3333 17.3333 17.9303 17.3333 18.6667V21.3333C17.3333 22.0697 16.7364 22.6667 16 22.6667C15.2636 22.6667 14.6667 22.0697 14.6667 21.3333V18.6667V16C14.6667 15.2636 15.2636 14.6667 16 14.6667C16.3678 14.6667 16.7009 14.8156 16.9421 15.0565C17.4643 14.8066 18.0491 14.6667 18.6667 14.6667C20.8758 14.6667 22.6667 16.4575 22.6667 18.6667V21.3333C22.6667 22.0697 22.0697 22.6667 21.3333 22.6667C20.597 22.6667 20 22.0697 20 21.3333V18.6667C20 17.9303 19.403 17.3333 18.6667 17.3333Z"/>
    </symbol>
    <symbol id="ic-twitter" viewBox="0 0 32 32">
        <path fill-rule="evenodd" clip-rule="evenodd" d="M26.6664 10.6687C26.6664 10.6679 26.6664 10.6671 26.6664 10.6663C26.6664 10.6663 26.6664 10.6662 26.6664 10.6661L29.1665 7.96864C29.574 7.52894 29.2075 6.82051 28.6131 6.89912L25.4809 7.31339C24.5031 6.10535 23.0083 5.33301 21.3331 5.33301C18.3876 5.33301 15.9998 7.72082 15.9998 10.6663C15.9998 11.3696 16.1359 12.0411 16.3832 12.6558C12.388 12.5624 8.1103 11.7719 5.94757 7.48687C5.67996 6.95664 4.91276 6.92594 4.7424 7.49492C3.17742 12.7216 5.93157 19.5126 11.9995 21.333C10.4858 22.813 6.5946 23.2149 3.41031 22.9233C2.79067 22.8666 2.40166 23.5724 2.88084 23.9694C5.55088 26.1812 9.25404 26.6663 12.6662 26.6663C21.332 26.6663 27.3317 19.3343 26.6664 10.6687Z"/>
    </symbol>
    <symbol id="ic-m" viewBox="0 0 40 40">
        <path d="M7.14189 12.1151C7.1611 11.9238 7.13489 11.7307 7.06538 11.5514C6.99588 11.3721 6.88504 11.2118 6.74189 11.0835L3.79189 7.52845V6.99512H12.9552L20.0386 22.5285L26.2652 6.99512H35.0002V7.52678L32.4752 9.94512C32.3696 10.0274 32.2879 10.1365 32.2386 10.2611C32.1894 10.3857 32.1744 10.5211 32.1952 10.6535V28.4301C32.174 28.5624 32.1888 28.698 32.2381 28.8227C32.2874 28.9473 32.3693 29.0564 32.4752 29.1384L34.9402 31.5568V32.0884H22.5469V31.5568L25.0952 29.0784C25.3486 28.8284 25.3486 28.7535 25.3486 28.3718V14.0018L18.2502 32.0301H17.2919L9.02855 14.0018V26.0834C8.96022 26.5918 9.12855 27.1034 9.48689 27.4718L12.8069 31.5001V32.0318H3.39355V31.5001L6.71355 27.4718C6.88822 27.2898 7.01791 27.0694 7.09228 26.8284C7.16665 26.5873 7.18364 26.3322 7.14189 26.0834V12.1151Z"/>
    </symbol>
    <symbol id="ic-send" viewBox="0 0 24 24">
        <path d="M9.43247 13.8521L4.49522 12.5652C2.61569 12.0753 2.46722 9.46394 4.27911 8.76416L18.9277 3.10671C20.1582 2.63147 21.3685 3.84175 20.8932 5.07225L15.2358 19.7208C14.536 21.5327 11.9247 21.3842 11.4348 19.5047L10.1479 14.5675C10.0566 14.2171 9.78292 13.9434 9.43247 13.8521Z"/>
    </symbol>
    <symbol id="ic-telegram" viewBox="0 0 40 40">
        <path d="M34.4417 6.1947L4.89166 17.5897C2.875 18.3997 2.88666 19.5247 4.52166 20.0264L12.1083 22.393L29.6617 11.318C30.4917 10.813 31.25 11.0847 30.6267 11.638L16.405 24.473H16.4017L16.405 24.4747L15.8817 32.2947C16.6483 32.2947 16.9867 31.943 17.4167 31.528L21.1017 27.9447L28.7667 33.6064C30.18 34.3847 31.195 33.9847 31.5467 32.298L36.5783 8.5847C37.0933 6.5197 35.79 5.5847 34.4417 6.1947Z"/>
    </symbol>
    <symbol id="ic-projects" viewBox="0 0 22 22">
        <path fill-rule="evenodd" clip-rule="evenodd" d="M2.75 8.61667C2.75 6.56314 2.75 5.53638 3.14964 4.75203C3.50118 4.06211 4.06211 3.50118 4.75203 3.14964C5.53638 2.75 6.56314 2.75 8.61667 2.75H13.3833C15.4369 2.75 16.4636 2.75 17.248 3.14964C17.9379 3.50118 18.4988 4.06211 18.8504 4.75203C19.25 5.53638 19.25 6.56314 19.25 8.61667V13.3833C19.25 15.4369 19.25 16.4636 18.8504 17.248C18.4988 17.9379 17.9379 18.4988 17.248 18.8504C16.4636 19.25 15.4369 19.25 13.3833 19.25H8.61667C6.56314 19.25 5.53638 19.25 4.75203 18.8504C4.06211 18.4988 3.50118 17.9379 3.14964 17.248C2.75 16.4636 2.75 15.4369 2.75 13.3833V8.61667ZM5.5 12.8333C6.00626 12.8333 6.41667 13.2437 6.41667 13.75C6.41667 14.1897 6.41716 14.4735 6.43198 14.6907C6.44624 14.8997 6.47064 14.9793 6.48644 15.0175C6.57948 15.2421 6.75793 15.4205 6.98254 15.5136C7.02069 15.5294 7.10028 15.5538 7.30928 15.568C7.52651 15.5828 7.81035 15.5833 8.25 15.5833C8.75626 15.5833 9.16667 15.9937 9.16667 16.5C9.16667 17.0063 8.75626 17.4167 8.25 17.4167H8.22068C7.81858 17.4167 7.47164 17.4167 7.18448 17.3971C6.88214 17.3765 6.57972 17.3311 6.28095 17.2073C5.60713 16.9282 5.07177 16.3929 4.79266 15.719C4.66891 15.4203 4.62353 15.1179 4.6029 14.8155C4.58331 14.5284 4.58332 14.1814 4.58333 13.7793L4.58333 13.75C4.58333 13.2437 4.99374 12.8333 5.5 12.8333ZM15.5833 13.75C15.5833 13.2437 15.9937 12.8333 16.5 12.8333C17.0063 12.8333 17.4167 13.2437 17.4167 13.75V13.7793C17.4167 14.1814 17.4167 14.5284 17.3971 14.8155C17.3765 15.1179 17.3311 15.4203 17.2073 15.719C16.9282 16.3929 16.3929 16.9282 15.719 17.2073C15.4203 17.3311 15.1179 17.3765 14.8155 17.3971C14.5284 17.4167 14.1814 17.4167 13.7793 17.4167H13.75C13.2437 17.4167 12.8333 17.0063 12.8333 16.5C12.8333 15.9937 13.2437 15.5833 13.75 15.5833C14.1897 15.5833 14.4735 15.5828 14.6907 15.568C14.8997 15.5538 14.9793 15.5294 15.0175 15.5136C15.2421 15.4205 15.4205 15.2421 15.5136 15.0175C15.5294 14.9793 15.5538 14.8997 15.568 14.6907C15.5828 14.4735 15.5833 14.1897 15.5833 13.75ZM5.5 9.16667C6.00626 9.16667 6.41667 8.75626 6.41667 8.25C6.41667 7.81035 6.41716 7.52651 6.43198 7.30928C6.44624 7.10028 6.47064 7.02069 6.48644 6.98254C6.57948 6.75793 6.75793 6.57948 6.98254 6.48644C7.02069 6.47064 7.10028 6.44624 7.30928 6.43198C7.52651 6.41716 7.81035 6.41667 8.25 6.41667C8.75626 6.41667 9.16667 6.00626 9.16667 5.5C9.16667 4.99374 8.75626 4.58333 8.25 4.58333L8.22068 4.58333C7.81858 4.58332 7.47164 4.58331 7.18448 4.6029C6.88214 4.62353 6.57972 4.66891 6.28095 4.79266C5.60713 5.07177 5.07177 5.60713 4.79266 6.28095C4.66891 6.57972 4.62353 6.88214 4.6029 7.18448C4.58331 7.47163 4.58332 7.81858 4.58333 8.22067L4.58333 8.25C4.58333 8.75626 4.99374 9.16667 5.5 9.16667ZM15.5833 8.25C15.5833 8.75626 15.9937 9.16667 16.5 9.16667C17.0063 9.16667 17.4167 8.75626 17.4167 8.25V8.22068C17.4167 7.81859 17.4167 7.47164 17.3971 7.18448C17.3765 6.88214 17.3311 6.57972 17.2073 6.28095C16.9282 5.60713 16.3929 5.07177 15.719 4.79266C15.4203 4.66891 15.1179 4.62353 14.8155 4.6029C14.5284 4.58331 14.1814 4.58332 13.7793 4.58333L13.75 4.58333C13.2437 4.58333 12.8333 4.99374 12.8333 5.5C12.8333 6.00626 13.2437 6.41667 13.75 6.41667C14.1897 6.41667 14.4735 6.41716 14.6907 6.43198C14.8997 6.44624 14.9793 6.47064 15.0175 6.48644C15.2421 6.57948 15.4205 6.75793 15.5136 6.98254C15.5294 7.02069 15.5538 7.10028 15.568 7.30928C15.5828 7.52651 15.5833 7.81035 15.5833 8.25Z"/>
    </symbol>
    <symbol id="ic-calculator" viewBox="0 0 24 24">
        <path fill-rule="evenodd" clip-rule="evenodd" d="M3.43597 5.18404C3 6.03969 3 7.15979 3 9.4V14.6C3 16.8402 3 17.9603 3.43597 18.816C3.81947 19.5686 4.43139 20.1805 5.18404 20.564C6.03969 21 7.15979 21 9.4 21H14.6C16.8402 21 17.9603 21 18.816 20.564C19.5686 20.1805 20.1805 19.5686 20.564 18.816C21 17.9603 21 16.8402 21 14.6V9.4C21 7.15979 21 6.03969 20.564 5.18404C20.1805 4.43139 19.5686 3.81947 18.816 3.43597C17.9603 3 16.8402 3 14.6 3H9.4C7.15979 3 6.03969 3 5.18404 3.43597C4.43139 3.81947 3.81947 4.43139 3.43597 5.18404ZM8 13C8.55228 13 9 12.5523 9 12C9 11.4477 8.55228 11 8 11C7.44772 11 7 11.4477 7 12C7 12.5523 7.44772 13 8 13ZM13 12C13 12.5523 12.5523 13 12 13C11.4477 13 11 12.5523 11 12C11 11.4477 11.4477 11 12 11C12.5523 11 13 11.4477 13 12ZM16 13C16.5523 13 17 12.5523 17 12C17 11.4477 16.5523 11 16 11C15.4477 11 15 11.4477 15 12C15 12.5523 15.4477 13 16 13ZM9 16C9 16.5523 8.55228 17 8 17C7.44772 17 7 16.5523 7 16C7 15.4477 7.44772 15 8 15C8.55228 15 9 15.4477 9 16ZM12 17C12.5523 17 13 16.5523 13 16C13 15.4477 12.5523 15 12 15C11.4477 15 11 15.4477 11 16C11 16.5523 11.4477 17 12 17ZM17 16C17 16.5523 16.5523 17 16 17C15.4477 17 15 16.5523 15 16C15 15.4477 15.4477 15 16 15C16.5523 15 17 15.4477 17 16ZM8 7C7.44772 7 7 7.44772 7 8C7 8.55228 7.44772 9 8 9H16C16.5523 9 17 8.55228 17 8C17 7.44772 16.5523 7 16 7H8Z"/>
    </symbol>
    <symbol id="ic-coins" viewBox="0 0 22 22">
        <path d="M2.75 13.2916C2.75 16.5823 5.41764 19.25 8.70833 19.25C11.999 19.25 14.6667 16.5823 14.6667 13.2916C14.6667 10.0009 11.999 7.33331 8.70833 7.33331C5.41764 7.33331 2.75 10.0009 2.75 13.2916Z"/>
        <path d="M8.51573 5.14514C8.40406 5.29457 8.52181 5.5 8.70835 5.5C13.0116 5.5 16.5 8.98845 16.5 13.2917C16.5 13.4782 16.7054 13.596 16.8549 13.4843C18.3088 12.3978 19.25 10.663 19.25 8.70833C19.25 5.41764 16.5824 2.75 13.2917 2.75C11.337 2.75 9.60222 3.69121 8.51573 5.14514Z"/>
    </symbol>
    <symbol id="ic-safe" viewBox="0 0 22 22">
        <path fill-rule="evenodd" clip-rule="evenodd" d="M3.04973 4.25153C2.75 4.83978 2.75 5.60986 2.75 7.15V13.0167C2.75 14.5568 2.75 15.3269 3.04973 15.9151C3.31338 16.4326 3.73408 16.8533 4.25153 17.1169C4.5781 17.2833 4.96071 17.3574 5.5 17.3903V18.3333C5.5 18.8396 5.91041 19.25 6.41667 19.25C6.92293 19.25 7.33333 18.8396 7.33333 18.3333V17.4167H14.6667V18.3333C14.6667 18.8396 15.0771 19.25 15.5833 19.25C16.0896 19.25 16.5 18.8396 16.5 18.3333V17.3903C17.0393 17.3574 17.4219 17.2833 17.7485 17.1169C18.2659 16.8533 18.6866 16.4326 18.9503 15.9151C19.25 15.3269 19.25 14.5568 19.25 13.0167V7.15C19.25 5.60986 19.25 4.83978 18.9503 4.25153C18.6866 3.73408 18.2659 3.31338 17.7485 3.04973C17.1602 2.75 16.3901 2.75 14.85 2.75H7.15C5.60986 2.75 4.83978 2.75 4.25153 3.04973C3.73408 3.31338 3.31338 3.73408 3.04973 4.25153ZM11.9167 10.0833C11.9167 10.5896 11.5063 11 11 11C10.4937 11 10.0833 10.5896 10.0833 10.0833C10.0833 9.57707 10.4937 9.16667 11 9.16667C11.5063 9.16667 11.9167 9.57707 11.9167 10.0833ZM8.40648 11C8.68266 11.7814 9.30195 12.4007 10.0833 12.6769V13.75C10.0833 14.2563 10.4937 14.6667 11 14.6667C11.5063 14.6667 11.9167 14.2563 11.9167 13.75V12.6769C12.698 12.4007 13.3173 11.7814 13.5935 11H14.6667C15.1729 11 15.5833 10.5896 15.5833 10.0833C15.5833 9.57707 15.1729 9.16667 14.6667 9.16667H13.5935C13.3173 8.38529 12.698 7.76599 11.9167 7.48981V6.41667C11.9167 5.91041 11.5063 5.5 11 5.5C10.4937 5.5 10.0833 5.91041 10.0833 6.41667V7.48981C9.30195 7.76599 8.68266 8.38529 8.40648 9.16667H7.33333C6.82707 9.16667 6.41667 9.57707 6.41667 10.0833C6.41667 10.5896 6.82707 11 7.33333 11H8.40648Z"/>
    </symbol>
    <symbol id="ic-bookmark" viewBox="0 0 22 22">
        <path d="M7.33329 1.83331C5.30825 1.83331 3.66663 3.47494 3.66663 5.49998V18.334C3.66663 19.8772 5.45682 20.73 6.65513 19.7576L10.4224 16.7008C10.759 16.4277 11.2409 16.4277 11.5775 16.7008L15.3447 19.7576C16.543 20.73 18.3332 19.8772 18.3332 18.334V5.49998C18.3332 3.47494 16.6916 1.83331 14.6666 1.83331H7.33329Z"/>
    </symbol>
    <symbol id="ic-copy" viewBox="0 0 22 22">
        <path d="M7.33565 6.21062H19.25C19.5484 6.21062 19.8345 6.32915 20.0455 6.54013C20.2565 6.7511 20.375 7.03725 20.375 7.33562V19.25C20.375 19.5484 20.2565 19.8345 20.0455 20.0455C19.8345 20.2565 19.5484 20.375 19.25 20.375H7.33565C7.03728 20.375 6.75113 20.2565 6.54015 20.0455C6.32918 19.8345 6.21065 19.5484 6.21065 19.25V7.33562C6.21065 7.03725 6.32918 6.7511 6.54015 6.54013C6.75113 6.32915 7.03728 6.21062 7.33565 6.21062ZM15.7894 3.21062V4.33563H7.33563C6.53998 4.33563 5.77691 4.6517 5.2143 5.2143C4.6517 5.77691 4.33563 6.53998 4.33563 7.33563V15.7894H3.21063C2.79112 15.7894 2.3887 15.6231 2.09151 15.3271C1.79443 15.0311 1.62669 14.6295 1.625 14.2101V3.21111C1.62668 2.79097 1.79433 2.38851 2.09142 2.09142C2.38851 1.79433 2.79097 1.62668 3.21111 1.625H14.2101C14.6295 1.62669 15.0311 1.79443 15.3271 2.09151C15.6231 2.3887 15.7894 2.79112 15.7894 3.21062Z"/>
    </symbol>
    <symbol id="ic-bell" viewBox="0 0 22 22">
        <path d="M9.22322 18.787C9.16077 18.5417 9.37186 18.3333 9.62499 18.3333H12.375C12.6281 18.3333 12.8392 18.5417 12.7767 18.787C12.5748 19.5801 11.8559 20.1666 11 20.1666C10.1441 20.1666 9.42513 19.5801 9.22322 18.787Z"/>
        <path d="M11.9207 3.66669H10.0793L9.13358 4.0069C6.95371 4.79106 5.5002 6.85863 5.5002 9.17525V10.3908C5.5002 11.0634 5.18395 11.6968 4.64636 12.101C2.7696 13.5121 3.76757 16.5 6.11563 16.5H15.8847C18.2327 16.5 19.2307 13.5122 17.354 12.101C16.8164 11.6968 16.5002 11.0634 16.5002 10.3908V9.17533C16.5002 6.85866 15.0466 4.79107 12.8667 4.00695L11.9207 3.66669Z"/>
        <path d="M10.0833 2.74998C10.0833 2.24372 10.4937 1.83331 11 1.83331V1.83331C11.5062 1.83331 11.9166 2.24372 11.9166 2.74998V3.66665H10.0833V2.74998Z"/>
    </symbol>
    <symbol id="ic-coin" viewBox="0 0 22 22">
        <path fill-rule="evenodd" clip-rule="evenodd" d="M11 20.1667C16.0626 20.1667 20.1667 16.0626 20.1667 11C20.1667 5.9374 16.0626 1.83334 11 1.83334C5.9374 1.83334 1.83334 5.9374 1.83334 11C1.83334 16.0626 5.9374 20.1667 11 20.1667ZM9.16668 8.25001C9.16668 7.74375 9.57708 7.33334 10.0833 7.33334H11.9167C12.4229 7.33334 12.8333 7.74375 12.8333 8.25001C12.8333 8.75627 13.2437 9.16668 13.75 9.16668C14.2563 9.16668 14.6667 8.75627 14.6667 8.25001C14.6667 6.73123 13.4355 5.50001 11.9167 5.50001V4.58334C11.9167 4.07708 11.5063 3.66668 11 3.66668C10.4937 3.66668 10.0833 4.07708 10.0833 4.58334V5.50001C8.56456 5.50001 7.33334 6.73123 7.33334 8.25001V8.76195C7.33334 9.94564 8.09078 10.9965 9.21372 11.3708L12.2066 12.3684C12.5809 12.4932 12.8333 12.8435 12.8333 13.2381V13.75C12.8333 14.2563 12.4229 14.6667 11.9167 14.6667H10.0833C9.57708 14.6667 9.16668 14.2563 9.16668 13.75C9.16668 13.2437 8.75627 12.8333 8.25001 12.8333C7.74375 12.8333 7.33334 13.2437 7.33334 13.75C7.33334 15.2688 8.56456 16.5 10.0833 16.5V17.4167C10.0833 17.9229 10.4937 18.3333 11 18.3333C11.5063 18.3333 11.9167 17.9229 11.9167 17.4167V16.5C13.4355 16.5 14.6667 15.2688 14.6667 13.75V13.2381C14.6667 12.0544 13.9092 11.0035 12.7863 10.6292L9.79347 9.63158C9.41915 9.50681 9.16668 9.15651 9.16668 8.76195V8.25001Z"/>
    </symbol>
    <symbol id="ic-perspective" viewBox="0 0 22 22">
        <path fill-rule="evenodd" clip-rule="evenodd" d="M10.0833 4.57368C10.0833 4.27823 10.3588 4.05996 10.6464 4.12748L13.3964 4.77305C13.6036 4.82168 13.75 5.00648 13.75 5.21926V9.625C13.75 9.87813 13.5448 10.0833 13.2917 10.0833H10.5417C10.2885 10.0833 10.0833 9.87813 10.0833 9.625V4.57368ZM7.79167 10.0833C8.0448 10.0833 8.25 9.87813 8.25 9.625V3.92811C8.25 3.71533 8.10356 3.53054 7.89641 3.48191L5.00233 2.80251C3.85177 2.53241 2.75 3.40548 2.75 4.58732V9.625C2.75 9.87813 2.9552 10.0833 3.20833 10.0833L7.79167 10.0833ZM2.75 12.375C2.75 12.1219 2.9552 11.9167 3.20833 11.9167H7.79167C8.0448 11.9167 8.25 12.1219 8.25 12.375V18.0786C8.25 18.2913 8.10368 18.476 7.89665 18.5247L5.00328 19.2056C3.85247 19.4764 2.75 18.6033 2.75 17.421V12.375ZM10.0833 12.375C10.0833 12.1219 10.2885 11.9167 10.5417 11.9167H13.2917C13.5448 11.9167 13.75 12.1219 13.75 12.375V16.7843C13.75 16.997 13.6037 17.1818 13.3967 17.2305L10.6467 17.8776C10.359 17.9453 10.0833 17.727 10.0833 17.4315V12.375ZM16.0417 11.9167C15.7885 11.9167 15.5833 12.1219 15.5833 12.375V16.1372C15.5833 16.4328 15.859 16.6511 16.1467 16.5834L17.8366 16.1857C18.6647 15.9908 19.25 15.2518 19.25 14.4011V12.375C19.25 12.1219 19.0448 11.9167 18.7917 11.9167H16.0417ZM18.7917 10.0833C19.0448 10.0833 19.25 9.87813 19.25 9.625V7.6C19.25 6.74889 18.6642 6.0097 17.8357 5.81518L16.1464 5.41863C15.8588 5.3511 15.5833 5.56937 15.5833 5.86483V9.625C15.5833 9.87813 15.7885 10.0833 16.0417 10.0833L18.7917 10.0833Z"/>
    </symbol>
    <symbol id="ic-wallet" viewBox="0 0 22 22">
        <path fill-rule="evenodd" clip-rule="evenodd" d="M2.13308 5.1682C1.83334 5.75645 1.83334 6.52653 1.83334 8.06667V13.9333C1.83334 15.4735 1.83334 16.2436 2.13308 16.8318C2.39673 17.3493 2.81742 17.77 3.33487 18.0336C3.92313 18.3333 4.6932 18.3333 6.23334 18.3333H15.7667C17.3068 18.3333 18.0769 18.3333 18.6651 18.0336C19.1826 17.77 19.6033 17.3493 19.8669 16.8318C20.1667 16.2436 20.1667 15.4735 20.1667 13.9333C20.1667 13.8321 20.0846 13.75 19.9833 13.75H15.5833C14.0646 13.75 12.8333 12.5188 12.8333 11C12.8333 9.48122 14.0646 8.25 15.5833 8.25H19.9833C20.0846 8.25 20.1667 8.16792 20.1667 8.06667C20.1667 6.52653 20.1667 5.75645 19.8669 5.1682C19.6033 4.65075 19.1826 4.23006 18.6651 3.9664C18.0769 3.66667 17.3068 3.66667 15.7667 3.66667H6.23334C4.6932 3.66667 3.92313 3.66667 3.33487 3.9664C2.81742 4.23006 2.39673 4.65075 2.13308 5.1682Z"/>
        <path d="M16.5 11C16.5 11.5063 16.0896 11.9167 15.5833 11.9167C15.0771 11.9167 14.6667 11.5063 14.6667 11C14.6667 10.4937 15.0771 10.0833 15.5833 10.0833C16.0896 10.0833 16.5 10.4937 16.5 11Z"/>
    </symbol>
    <symbol id="ic-info" viewBox="0 0 22 22">
        <path d="M12.6857 16.0646C12.6802 16.0664 12.1733 16.2351 11.7333 16.2351C11.4904 16.2351 11.3923 16.1846 11.3611 16.1626C11.2071 16.0554 10.9211 15.8546 11.4106 14.8793L12.3273 13.0515C12.8709 11.9661 12.9515 10.9166 12.5519 10.0952C12.2256 9.42331 11.5995 8.96223 10.7919 8.79723C10.5013 8.73765 10.2061 8.70831 9.91372 8.70831C8.2188 8.70831 7.07755 9.69831 7.02989 9.74048C6.8658 9.88531 6.8273 10.1255 6.93638 10.3143C7.04638 10.5031 7.2728 10.5893 7.4818 10.5178C7.48638 10.516 7.99422 10.3464 8.43422 10.3464C8.6753 10.3464 8.77247 10.3968 8.80272 10.4179C8.95763 10.5261 9.24455 10.7296 8.75597 11.7031L7.8393 13.5318C7.2948 14.6181 7.21505 15.6676 7.61472 16.4881C7.94105 17.16 8.56622 17.6211 9.37563 17.7861C9.66347 17.8438 9.95863 17.875 10.2501 17.875C11.946 17.875 13.0881 16.885 13.1358 16.8428C13.2999 16.6989 13.3384 16.4578 13.2293 16.269C13.1193 16.0811 12.891 15.9967 12.6857 16.0646Z"/>
        <path d="M11.9166 7.79256C13.1823 7.79256 14.2083 6.76655 14.2083 5.5009C14.2083 4.23524 13.1823 3.20923 11.9166 3.20923C10.651 3.20923 9.62497 4.23524 9.62497 5.5009C9.62497 6.76655 10.651 7.79256 11.9166 7.79256Z"/>
    </symbol>
    <symbol id="ic-locOut" viewBox="0 0 22 22">
        <path fill-rule="evenodd" clip-rule="evenodd" d="M11 1.83331C6.44365 1.83331 2.75 5.52696 2.75 10.0833C2.75 12.8575 4.40895 15.2091 6.32047 16.8657L9.4751 19.5998C10.0839 20.1273 10.898 20.2879 11.6318 20.0815C11.8083 20.0319 11.9167 19.862 11.9167 19.6786V17.4166C11.9167 14.3791 14.3791 11.9166 17.4167 11.9166H18.6546C18.8622 11.9166 19.0454 11.7774 19.0893 11.5745C19.1935 11.093 19.25 10.5953 19.25 10.0833C19.25 5.52696 15.5563 1.83331 11 1.83331ZM12.8333 10.0833C12.8333 11.0958 12.0125 11.9166 11 11.9166C9.98748 11.9166 9.16667 11.0958 9.16667 10.0833C9.16667 9.07079 9.98748 8.24998 11 8.24998C12.0125 8.24998 12.8333 9.07079 12.8333 10.0833Z"/>
        <path fill-rule="evenodd" clip-rule="evenodd" d="M14.0185 16.7685C13.6605 17.1264 13.6605 17.7068 14.0185 18.0648L15.8518 19.8982C16.2098 20.2561 16.7902 20.2561 17.1482 19.8982C17.5062 19.5402 17.5062 18.9598 17.1482 18.6018L16.8797 18.3333H20.1667C20.6729 18.3333 21.0833 17.9229 21.0833 17.4166C21.0833 16.9104 20.6729 16.5 20.1667 16.5H16.8797L17.1482 16.2315C17.5062 15.8735 17.5062 15.2931 17.1482 14.9351C16.7902 14.5772 16.2098 14.5772 15.8518 14.9351L14.0185 16.7685Z"/>
        <path d="M6.32047 16.8657L6.15673 17.0547L6.32047 16.8657ZM9.4751 19.5998L9.63884 19.4108L9.4751 19.5998ZM19.0893 11.5745L19.3337 11.6273L19.0893 11.5745ZM11.6318 20.0815L11.5641 19.8409L11.6318 20.0815ZM14.0185 18.0648L13.8417 18.2416L14.0185 18.0648ZM14.0185 16.7685L13.8417 16.5917L14.0185 16.7685ZM15.8518 19.8982L16.0286 19.7214L15.8518 19.8982ZM17.1482 19.8982L16.9714 19.7214L17.1482 19.8982ZM17.1482 18.6018L17.325 18.425L17.1482 18.6018ZM16.8797 18.3333V18.0833H16.2761L16.7029 18.5101L16.8797 18.3333ZM20.1667 18.3333V18.5833V18.3333ZM20.1667 16.5V16.75V16.5ZM16.8797 16.5L16.7029 16.3232L16.2761 16.75H16.8797V16.5ZM17.1482 16.2315L17.325 16.4083H17.325L17.1482 16.2315ZM17.1482 14.9351L17.325 14.7584L17.1482 14.9351ZM15.8518 14.9351L15.675 14.7584L15.8518 14.9351ZM3 10.0833C3 5.66503 6.58172 2.08331 11 2.08331V1.58331C6.30558 1.58331 2.5 5.38889 2.5 10.0833H3ZM6.4842 16.6768C4.5996 15.0435 3 12.7548 3 10.0833H2.5C2.5 12.9602 4.21831 15.3747 6.15673 17.0547L6.4842 16.6768ZM9.63884 19.4108L6.4842 16.6768L6.15673 17.0547L9.31137 19.7887L9.63884 19.4108ZM11.5641 19.8409C10.9087 20.0252 10.1821 19.8816 9.63884 19.4108L9.31137 19.7887C9.98565 20.3731 10.8873 20.5506 11.6995 20.3222L11.5641 19.8409ZM12.1667 19.6786V17.4166H11.6667V19.6786H12.1667ZM12.1667 17.4166C12.1667 14.5172 14.5172 12.1666 17.4167 12.1666V11.6666C14.241 11.6666 11.6667 14.241 11.6667 17.4166H12.1667ZM17.4167 12.1666H18.6546V11.6666H17.4167V12.1666ZM19 10.0833C19 10.5768 18.9455 11.0567 18.845 11.5216L19.3337 11.6273C19.4414 11.1292 19.5 10.6139 19.5 10.0833H19ZM11 2.08331C15.4183 2.08331 19 5.66503 19 10.0833H19.5C19.5 5.38889 15.6944 1.58331 11 1.58331V2.08331ZM11 12.1666C12.1506 12.1666 13.0833 11.2339 13.0833 10.0833H12.5833C12.5833 10.9578 11.8745 11.6666 11 11.6666V12.1666ZM8.91667 10.0833C8.91667 11.2339 9.84941 12.1666 11 12.1666V11.6666C10.1255 11.6666 9.41667 10.9578 9.41667 10.0833H8.91667ZM11 7.99998C9.84941 7.99998 8.91667 8.93272 8.91667 10.0833H9.41667C9.41667 9.20886 10.1255 8.49998 11 8.49998V7.99998ZM13.0833 10.0833C13.0833 8.93272 12.1506 7.99998 11 7.99998V8.49998C11.8745 8.49998 12.5833 9.20886 12.5833 10.0833H13.0833ZM18.6546 12.1666C18.9726 12.1666 19.2633 11.9523 19.3337 11.6273L18.845 11.5216C18.8275 11.6025 18.7519 11.6666 18.6546 11.6666V12.1666ZM11.6995 20.3222C12.002 20.2371 12.1667 19.9539 12.1667 19.6786H11.6667C11.6667 19.7701 11.6146 19.8266 11.5641 19.8409L11.6995 20.3222ZM14.1953 17.8881C13.9349 17.6277 13.9349 17.2056 14.1953 16.9452L13.8417 16.5917C13.3861 17.0473 13.3861 17.786 13.8417 18.2416L14.1953 17.8881ZM16.0286 19.7214L14.1953 17.8881L13.8417 18.2416L15.675 20.0749L16.0286 19.7214ZM16.9714 19.7214C16.7111 19.9817 16.2889 19.9817 16.0286 19.7214L15.675 20.0749C16.1307 20.5306 16.8693 20.5306 17.325 20.0749L16.9714 19.7214ZM16.9714 18.7786C17.2318 19.0389 17.2318 19.461 16.9714 19.7214L17.325 20.0749C17.7806 19.6193 17.7806 18.8806 17.325 18.425L16.9714 18.7786ZM16.7029 18.5101L16.9714 18.7786L17.325 18.425L17.0565 18.1565L16.7029 18.5101ZM20.1667 18.0833H16.8797V18.5833H20.1667V18.0833ZM20.8333 17.4166C20.8333 17.7848 20.5349 18.0833 20.1667 18.0833V18.5833C20.811 18.5833 21.3333 18.061 21.3333 17.4166H20.8333ZM20.1667 16.75C20.5349 16.75 20.8333 17.0485 20.8333 17.4166H21.3333C21.3333 16.7723 20.811 16.25 20.1667 16.25V16.75ZM16.8797 16.75H20.1667V16.25H16.8797V16.75ZM16.9714 16.0547L16.7029 16.3232L17.0565 16.6768L17.325 16.4083L16.9714 16.0547ZM16.9714 15.1119C17.2318 15.3723 17.2318 15.7944 16.9714 16.0547L17.325 16.4083C17.7806 15.9527 17.7806 15.214 17.325 14.7584L16.9714 15.1119ZM16.0286 15.1119C16.2889 14.8516 16.7111 14.8516 16.9714 15.1119L17.325 14.7584C16.8693 14.3027 16.1307 14.3027 15.675 14.7584L16.0286 15.1119ZM14.1953 16.9452L16.0286 15.1119L15.675 14.7584L13.8417 16.5917L14.1953 16.9452Z"/>
    </symbol>
    <symbol id="ic-locView" viewBox="0 0 22 22">
        <path fill-rule="evenodd" clip-rule="evenodd" d="M17.4165 20.1667C19.1382 20.1667 20.4202 18.6145 20.9514 17.8424C21.1294 17.5838 21.1294 17.2496 20.9514 16.9909C20.4202 16.2188 19.1382 14.6667 17.4165 14.6667C15.6949 14.6667 14.4129 16.2188 13.8816 16.9909C13.7037 17.2496 13.7037 17.5838 13.8816 17.8424C14.4129 18.6145 15.6949 20.1667 17.4165 20.1667ZM17.4167 18.3334C17.923 18.3334 18.3334 17.9229 18.3334 17.4167C18.3334 16.9104 17.923 16.5 17.4167 16.5C16.9105 16.5 16.5 16.9104 16.5 17.4167C16.5 17.9229 16.9105 18.3334 17.4167 18.3334Z"/>
        <path fill-rule="evenodd" clip-rule="evenodd" d="M11 1.83331C6.44365 1.83331 2.75 5.52696 2.75 10.0833C2.75 12.8575 4.40895 15.2091 6.32047 16.8657L9.4751 19.5998C10.0839 20.1273 10.898 20.2879 11.6318 20.0815C11.8083 20.0319 11.9167 19.862 11.9167 19.6786V17.4166C11.9167 14.3791 14.3791 11.9166 17.4167 11.9166H18.6546C18.8622 11.9166 19.0454 11.7774 19.0893 11.5745C19.1935 11.093 19.25 10.5953 19.25 10.0833C19.25 5.52696 15.5563 1.83331 11 1.83331ZM12.8333 10.0833C12.8333 11.0958 12.0125 11.9166 11 11.9166C9.98748 11.9166 9.16667 11.0958 9.16667 10.0833C9.16667 9.07079 9.98748 8.24998 11 8.24998C12.0125 8.24998 12.8333 9.07079 12.8333 10.0833Z"/>
    </symbol>
    <symbol id="ic-locLocked" viewBox="0 0 22 22">
        <path fill-rule="evenodd" clip-rule="evenodd" d="M16.5 16.5C16.5 15.9937 16.9104 15.5833 17.4167 15.5833C17.9229 15.5833 18.3333 15.9937 18.3333 16.5V17.4167H16.5V16.5ZM20.1667 17.4167C20.6729 17.4167 21.0833 17.8271 21.0833 18.3333V20.1667C21.0833 20.6729 20.6729 21.0833 20.1667 21.0833H14.6667C14.1604 21.0833 13.75 20.6729 13.75 20.1667V18.3333C13.75 17.8271 14.1604 17.4167 14.6667 17.4167V16.5C14.6667 14.9812 15.8979 13.75 17.4167 13.75C18.9354 13.75 20.1667 14.9812 20.1667 16.5V17.4167Z"/>
        <path fill-rule="evenodd" clip-rule="evenodd" d="M11 1.83331C6.44365 1.83331 2.75 5.52696 2.75 10.0833C2.75 12.8575 4.40895 15.2091 6.32047 16.8657L9.4751 19.5998C10.0839 20.1273 10.898 20.2879 11.6318 20.0815C11.8083 20.0319 11.9167 19.862 11.9167 19.6786V17.4166C11.9167 14.3791 14.3791 11.9166 17.4167 11.9166H18.6546C18.8622 11.9166 19.0454 11.7774 19.0893 11.5745C19.1935 11.093 19.25 10.5953 19.25 10.0833C19.25 5.52696 15.5563 1.83331 11 1.83331ZM12.8333 10.0833C12.8333 11.0958 12.0125 11.9166 11 11.9166C9.98748 11.9166 9.16667 11.0958 9.16667 10.0833C9.16667 9.07079 9.98748 8.24998 11 8.24998C12.0125 8.24998 12.8333 9.07079 12.8333 10.0833Z"/>
    </symbol>
    <symbol id="ic-star" viewBox="0 0 16 16">
        <path d="M7.18861 1.29715C7.48319 0.566965 8.51695 0.566965 8.81153 1.29715L10.2645 4.89874C10.3529 5.11803 10.5576 5.26861 10.7933 5.28784L14.4429 5.58564C15.2125 5.64844 15.5294 6.60477 14.9496 7.11477L12.1802 9.55052C12.0094 9.70076 11.9337 9.93194 11.9826 10.1541L12.8682 14.1794C13.0402 14.9615 12.1584 15.5447 11.5061 15.0802L8.36258 12.842C8.1456 12.6875 7.85454 12.6875 7.63756 12.842L4.49405 15.0802C3.84174 15.5447 2.95992 14.9615 3.13198 14.1794L4.01756 10.1541C4.06644 9.93194 3.99074 9.70075 3.81992 9.55052L1.05044 7.11478C0.470574 6.60479 0.787475 5.64844 1.55714 5.58564L5.20687 5.28784C5.44255 5.26861 5.64719 5.11803 5.73566 4.89874L7.18861 1.29715Z"/>
    </symbol>
    <symbol id="ic-boost" viewBox="0 0 22 22">
        <path fill-rule="evenodd" clip-rule="evenodd" d="M20.1666 11C20.1666 16.0627 16.0626 20.1667 11 20.1667C5.93737 20.1667 1.83331 16.0627 1.83331 11C1.83331 5.93743 5.93737 1.83337 11 1.83337C16.0626 1.83337 20.1666 5.93743 20.1666 11ZM11 5.50004C11.2431 5.50004 11.4763 5.59662 11.6482 5.76853L13.4815 7.60186C13.8395 7.95984 13.8395 8.54024 13.4815 8.89822C13.1235 9.2562 12.5431 9.2562 12.1851 8.89822L11.9166 8.62974V15.5834C11.9166 16.0896 11.5062 16.5 11 16.5C10.4937 16.5 10.0833 16.0896 10.0833 15.5834V8.62974L9.81483 8.89822C9.45685 9.2562 8.87645 9.2562 8.51847 8.89822C8.16048 8.54024 8.16048 7.95984 8.51847 7.60186L10.3518 5.76853C10.5237 5.59662 10.7569 5.50004 11 5.50004Z"/>
    </symbol>
    <symbol id="ic-check" viewBox="0 0 22 22">
        <path d="M2.08337 11C2.08337 6.0755 6.0755 2.08337 11 2.08337C15.9246 2.08337 19.9167 6.0755 19.9167 11C19.9167 15.9246 15.9246 19.9167 11 19.9167C6.0755 19.9167 2.08337 15.9246 2.08337 11ZM14.575 9.99167C15.0306 9.53605 15.0306 8.79736 14.575 8.34175C14.1194 7.88614 13.3807 7.88614 12.9251 8.34175L10.0834 11.1835L9.075 10.1751C8.61939 9.71947 7.88069 9.71947 7.42508 10.1751C6.96947 10.6307 6.96947 11.3694 7.42508 11.825L9.25842 13.6583C9.71403 14.1139 10.4527 14.1139 10.9083 13.6583L14.575 9.99167Z"/>
    </symbol>

</svg>
